<?xml version="1.0" encoding="UTF-8"?>
<svg version="1.1" xmlns="http://www.w3.org/2000/svg" width="1024" height="1024">
<path d="M0 0 C42.6618835 -1.15983844 83.3297794 17.40063253 114.0546875 46.16015625 C127.36118851 58.96684411 138.31640144 74.38628324 146.0546875 91.16015625 C146.0546875 91.82015625 146.0546875 92.48015625 146.0546875 93.16015625 C146.58610352 92.99410889 147.11751953 92.82806152 147.66503906 92.65698242 C192.80563148 78.72332847 238.17460032 81.53592818 280.2734375 103.3203125 C289.22115497 108.08784262 297.31805582 113.61622468 305.0546875 120.16015625 C305.57015137 120.59585938 306.08561523 121.0315625 306.61669922 121.48046875 C335.85218789 146.53161094 354.12705899 184.48733621 357.88916016 222.64941406 C359.58234036 248.33181108 356.71009431 271.65988292 349.0546875 296.16015625 C349.9415625 296.43859375 350.8284375 296.71703125 351.7421875 297.00390625 C365.7312408 301.88687768 378.05366691 311.951229 388.7265625 321.984375 C390.54037065 323.67949436 392.3569846 325.2526216 394.3046875 326.78515625 C397.96478719 329.94615143 400.98720677 333.42927196 404.0546875 337.16015625 C405.18390625 338.51560547 405.18390625 338.51560547 406.3359375 339.8984375 C426.83429177 365.42407803 440.36542977 398.2964149 442.0546875 431.16015625 C442.10753906 432.13210938 442.16039062 433.1040625 442.21484375 434.10546875 C443.28965588 473.63986284 427.18994711 514.15351928 400.23046875 542.83203125 C398.53534939 544.6458394 396.96222215 546.46245335 395.4296875 548.41015625 C383.87771751 561.7861215 366.99801405 572.75706867 351.0546875 580.16015625 C350.3946875 580.16015625 349.7346875 580.16015625 349.0546875 580.16015625 C349.65216797 581.95646484 349.65216797 581.95646484 350.26171875 583.7890625 C364.15094209 626.20963086 362.29093708 670.13564959 342.02734375 710.19091797 C323.00950242 746.9117224 289.88610399 773.91621219 250.71289062 786.59863281 C242.90804469 789.02091348 235.14444706 790.97221826 227.0546875 792.16015625 C225.33185547 792.43279297 225.33185547 792.43279297 223.57421875 792.7109375 C196.76407675 795.93826192 171.41010739 791.61196288 146.0546875 783.16015625 C145.8484375 783.92328125 145.6421875 784.68640625 145.4296875 785.47265625 C132.19509255 820.96543362 98.16717619 847.65536362 65.0546875 863.16015625 C28.02157183 879.96665303 -12.15145635 879.14086767 -49.99609375 865.75390625 C-68.48303647 858.72613499 -85.25394164 848.75166196 -99.71484375 835.234375 C-101.75691569 833.33535538 -103.85982832 831.5617797 -106.0078125 829.78515625 C-110.96914095 825.45146573 -114.91240844 820.34433377 -118.9453125 815.16015625 C-120.06099609 813.76796875 -120.06099609 813.76796875 -121.19921875 812.34765625 C-125.62092152 806.68787671 -129.41498903 800.90693047 -132.9453125 794.66015625 C-133.33138672 793.97735596 -133.71746094 793.29455566 -134.11523438 792.59106445 C-135.8314229 789.47329611 -137.18486322 786.63160722 -137.9453125 783.16015625 C-138.986875 783.48628906 -140.0284375 783.81242188 -141.1015625 784.1484375 C-185.2387081 797.70514309 -230.96440507 794.36271044 -272.11035156 773.03808594 C-308.22235282 753.39274038 -331.70394109 720.8907874 -343.9453125 682.16015625 C-353.90452631 648.43211247 -350.88173126 614.45993518 -340.9453125 581.16015625 C-341.83089844 580.721875 -342.71648437 580.28359375 -343.62890625 579.83203125 C-359.03969819 572.01813825 -372.60229388 562.2352367 -384.9453125 550.16015625 C-385.80511719 549.350625 -386.66492188 548.54109375 -387.55078125 547.70703125 C-416.55076405 519.83107879 -433.16588013 478.50937601 -434.2578125 438.53515625 C-433.4719956 397.811351 -416.77740102 359.56849574 -388.9453125 330.16015625 C-388.08679688 329.22558594 -387.22828125 328.29101562 -386.34375 327.328125 C-374.77295033 315.01672904 -360.8513373 305.78616575 -346.0078125 297.8671875 C-342.94675322 296.34384244 -342.94675322 296.34384244 -340.9453125 294.16015625 C-341.11135986 293.63397705 -341.27740723 293.10779785 -341.44848633 292.56567383 C-354.85784442 249.49107609 -352.79204406 204.48571199 -331.8515625 164.04296875 C-312.44214467 127.82762451 -280.79069816 102.67784899 -241.5859375 90.4765625 C-207.83739999 80.55264482 -171.07905529 81.27098972 -137.9453125 93.16015625 C-137.69910156 92.31710938 -137.45289063 91.4740625 -137.19921875 90.60546875 C-135.81594683 86.80470291 -133.98130008 83.47071346 -131.8828125 80.03515625 C-131.48578125 79.38135986 -131.08875 78.72756348 -130.6796875 78.05395508 C-124.4358065 67.93350049 -117.13294632 58.78148496 -108.9453125 50.16015625 C-108.49816895 49.68578125 -108.05102539 49.21140625 -107.59033203 48.72265625 C-79.64223041 19.24906608 -40.46982646 2.20061391 0 0 Z M143.0546875 271.16015625 C141.75429952 272.528498 140.49112309 273.93219592 139.2421875 275.34765625 C135.59332873 279.44756254 131.90890078 283.50823266 128.1796875 287.53515625 C124.27482974 291.75612154 120.3761789 295.98247578 116.4921875 300.22265625 C115.81651733 300.96020142 115.81651733 300.96020142 115.12719727 301.71264648 C113.76950787 303.19497941 112.41205243 304.6775262 111.0546875 306.16015625 C104.89614561 312.88704231 98.72656896 319.60333702 92.53759766 326.30224609 C87.81607053 331.4145624 83.1129908 336.54363342 78.41357422 341.67626953 C76.12826254 344.17180032 73.8413917 346.66590152 71.5546875 349.16015625 C70.63801346 350.1601495 69.7213468 351.16014949 68.8046875 352.16015625 C66.97135417 354.16015625 65.13802083 356.16015625 63.3046875 358.16015625 C62.85101807 358.65507568 62.39734863 359.14999512 61.92993164 359.65991211 C61.01248065 360.66075293 60.09500014 361.6615667 59.17749023 362.66235352 C56.89758199 365.14926886 54.61817457 367.6366394 52.33984375 370.125 C47.08530401 375.86271581 41.81722462 381.58760642 36.53759766 387.30224609 C31.81607053 392.4145624 27.1129908 397.54363342 22.41357422 402.67626953 C20.12826254 405.17180032 17.8413917 407.66590152 15.5546875 410.16015625 C14.63801346 411.1601495 13.7213468 412.16014949 12.8046875 413.16015625 C7.3046875 419.16015625 1.8046875 425.16015625 -3.6953125 431.16015625 C-4.14898193 431.65507568 -4.60265137 432.14999512 -5.07006836 432.65991211 C-5.98751935 433.66075293 -6.90499986 434.6615667 -7.82250977 435.66235352 C-10.10241801 438.14926886 -12.38182543 440.6366394 -14.66015625 443.125 C-19.91469599 448.86271581 -25.18277538 454.58760642 -30.46240234 460.30224609 C-34.71984005 464.91206145 -38.96319637 469.53456344 -43.19921875 474.1640625 C-45.1181384 476.2603904 -47.04353999 478.35055255 -48.97265625 480.4375 C-49.71890259 481.24658813 -49.71890259 481.24658813 -50.48022461 482.07202148 C-51.86326435 483.5712172 -53.24798576 485.06886105 -54.6328125 486.56640625 C-56.53497227 488.69990977 -58.28154676 490.83964088 -59.9453125 493.16015625 C-63.24559125 491.71817667 -65.42086764 489.93196448 -67.95697021 487.38900757 C-69.13899269 486.21110909 -69.13899269 486.21110909 -70.34489441 485.00941467 C-71.62775078 483.71577248 -71.62775078 483.71577248 -72.93652344 482.39599609 C-73.84418961 481.48862198 -74.75185577 480.58124786 -75.68702698 479.64637756 C-78.17261388 477.16136422 -80.65198828 474.67023501 -83.13029385 472.17796278 C-85.72254366 469.57320611 -88.32046254 466.97411627 -90.91778564 464.37442017 C-95.83386682 459.4521241 -100.74482773 454.52475222 -105.65397 449.59553683 C-111.2437179 443.98343024 -116.83914938 438.3770051 -122.43506575 432.77105021 C-133.94481778 421.24039597 -145.44741046 409.70262711 -156.9453125 398.16015625 C-161.34306449 401.84900001 -165.54797762 405.63956637 -169.60522461 409.70654297 C-170.12318604 410.22435837 -170.64114746 410.74217377 -171.17480469 411.27568054 C-172.85980772 412.96137159 -174.5412562 414.65055956 -176.22265625 416.33984375 C-177.40070508 417.51976072 -178.57897716 418.69945483 -179.75746155 419.87893677 C-182.83878392 422.96405316 -185.91708966 426.05216214 -188.99475098 429.14093018 C-192.14375284 432.30021358 -195.29563421 435.45662141 -198.44726562 438.61328125 C-204.6160836 444.79278152 -210.78171379 450.97545015 -216.9453125 457.16015625 C-212.97743823 461.91307661 -208.84139376 466.40659966 -204.45327759 470.77244568 C-203.82745108 471.39912661 -203.20162457 472.02580754 -202.55683362 472.67147881 C-200.47726427 474.75268396 -198.39416205 476.83031515 -196.31103516 478.90795898 C-194.81241734 480.40629449 -193.31402016 481.9048507 -191.81582642 483.40361023 C-187.76069563 487.45902729 -183.70249452 491.51135916 -179.64372683 495.56313586 C-175.39784774 499.80275308 -171.15481055 504.04521256 -166.91146851 508.28736877 C-158.88133107 516.31440125 -150.84864846 524.33888172 -142.81504381 532.36244398 C-133.66678952 541.49951121 -124.52138306 550.63942661 -115.37621236 559.77958 C-96.56907504 578.57627183 -77.75837185 597.36939174 -58.9453125 616.16015625 C-57.81826466 615.20059067 -56.6921264 614.23995669 -55.56637573 613.27886963 C-54.93916059 612.7440308 -54.31194546 612.20919197 -53.6657238 611.6581459 C-51.84316229 610.07121243 -50.15511386 608.41970564 -48.515625 606.64453125 C-47.95278809 606.03851074 -47.38995117 605.43249023 -46.81005859 604.80810547 C-46.23594238 604.18178223 -45.66182617 603.55545898 -45.0703125 602.91015625 C-44.45881348 602.24902832 -43.84731445 601.58790039 -43.21728516 600.90673828 C-39.17756828 596.53011179 -35.18065906 592.11598833 -31.2109375 587.67578125 C-28.52151984 584.68960026 -25.79896294 581.73545813 -23.0703125 578.78515625 C-22.56314697 578.23674072 -22.05598145 577.6883252 -21.53344727 577.12329102 C-20.77245728 576.30042603 -20.77245728 576.30042603 -19.99609375 575.4609375 C-13.79214489 568.75231405 -7.60844457 562.02551935 -1.5078125 555.22265625 C2.95112665 550.25503242 7.47907081 545.35332373 12.01171875 540.453125 C14.88863512 537.34232784 17.75518367 534.2221728 20.6171875 531.09765625 C21.06690918 530.60668457 21.51663086 530.11571289 21.97998047 529.60986328 C22.88531352 528.6213111 23.79058713 527.63270448 24.69580078 526.64404297 C26.98111246 524.14851218 29.2679833 521.65441098 31.5546875 519.16015625 C32.47136154 518.160163 33.3880282 517.16016301 34.3046875 516.16015625 C50.8046875 498.16015625 50.8046875 498.16015625 52.18017578 496.65966797 C53.09527383 495.66134964 54.01031305 494.66297739 54.92529297 493.66455078 C57.24047602 491.13837205 59.5567276 488.61318793 61.875 486.08984375 C66.10235501 481.4866586 70.31994833 476.87601849 74.4921875 472.22265625 C78.95112665 467.25503242 83.47907081 462.35332373 88.01171875 457.453125 C90.88863512 454.34232784 93.75518367 451.2221728 96.6171875 448.09765625 C97.29177002 447.36119873 97.29177002 447.36119873 97.97998047 446.60986328 C98.88531352 445.6213111 99.79058713 444.63270448 100.69580078 443.64404297 C102.98111246 441.14851218 105.2679833 438.65441098 107.5546875 436.16015625 C108.47136154 435.160163 109.3880282 434.16016301 110.3046875 433.16015625 C137.8046875 403.16015625 137.8046875 403.16015625 139.18017578 401.65966797 C140.09527383 400.66134964 141.01031305 399.66297739 141.92529297 398.66455078 C144.24047602 396.13837205 146.5567276 393.61318793 148.875 391.08984375 C153.10235501 386.4866586 157.31994833 381.87601849 161.4921875 377.22265625 C165.95112665 372.25503242 170.47907081 367.35332373 175.01171875 362.453125 C178.34141369 358.85274035 181.65852026 355.24092291 184.96679688 351.62084961 C187.30309485 349.06520673 189.64875402 346.51931001 192.01171875 343.98828125 C196.71627316 338.9336531 201.24288914 333.94357445 205.0546875 328.16015625 C203.39133444 326.46928448 201.72412211 324.7825078 200.0546875 323.09765625 C199.59707031 322.63166016 199.13945313 322.16566406 198.66796875 321.68554688 C195.28118264 318.2755636 191.73542192 315.10247702 188.10302734 311.95678711 C184.78134223 309.04328523 181.57800994 306.00716996 178.3671875 302.97265625 C176.9613058 301.64934819 175.55505089 300.32643653 174.1484375 299.00390625 C173.4575 298.35421875 172.7665625 297.70453125 172.0546875 297.03515625 C168.14106634 293.36613642 164.19435085 289.733217 160.24609375 286.1015625 C157.95411175 283.99299637 155.67211652 281.87410756 153.39453125 279.75 C152.49383911 278.91214966 152.49383911 278.91214966 151.57495117 278.05737305 C150.41575266 276.97874771 149.25829323 275.89824964 148.1027832 274.81567383 C145.90429753 272.29397206 145.90429753 272.29397206 143.0546875 271.16015625 Z " fill="#1C9BF0" transform="translate(507.9453125,73.83984375)"/>
</svg>
